<svg xmlns="http://www.w3.org/2000/svg" xmlns:xlink="http://www.w3.org/1999/xlink" width="900" zoomAndPan="magnify" viewBox="0 0 675.12 809.99995" height="1500" preserveAspectRatio="xMidYMid meet" version="1.0"><defs><g/><clipPath id="1ed2905b3e"><path d="M 0 0.527344 L 674.121094 0.527344 L 674.121094 809.472656 L 0 809.472656 Z M 0 0.527344 " clip-rule="nonzero"/></clipPath><clipPath id="1541e598c5"><path d="M 139 298 L 592 298 L 592 809.472656 L 139 809.472656 Z M 139 298 " clip-rule="nonzero"/></clipPath><clipPath id="a34d5c327f"><rect x="0" width="453" y="0" height="512"/></clipPath></defs><g clip-path="url(#1ed2905b3e)"><path fill="#ffffff" d="M 0 0.527344 L 674.121094 0.527344 L 674.121094 1124.0625 L 0 1124.0625 Z M 0 0.527344 " fill-opacity="1" fill-rule="nonzero"/><path fill="#f4f6f8" d="M 0 0.527344 L 674.121094 0.527344 L 674.121094 1124.0625 L 0 1124.0625 Z M 0 0.527344 " fill-opacity="1" fill-rule="nonzero"/></g><g clip-path="url(#1541e598c5)"><g transform="matrix(1, 0, 0, 1, 139, 298)"><g clip-path="url(#a34d5c327f)"><g fill="#000000" fill-opacity="1"><g transform="translate(0.274874, 453.146041)"><g><path d="M 371.574219 -150.03125 C 325.070312 -173.285156 242.15625 -204.871094 184.25 -222.417969 L 184.25 -293.925781 C 184.25 -307.085938 186.003906 -325.949219 187.320312 -339.546875 L 144.328125 -339.546875 C 146.960938 -325.949219 147.839844 -306.207031 147.839844 -293.925781 L 147.839844 -38.605469 C 147.839844 -22.375 146.960938 -0.878906 145.207031 13.160156 L 187.320312 13.160156 C 185.566406 -1.316406 184.6875 -24.566406 184.6875 -38.605469 L 184.25 -183.375 C 232.945312 -168.019531 308.839844 -138.625 356.65625 -112.742188 Z M 371.574219 -150.03125 "/></g></g></g></g></g></g><g fill="#3182ce" fill-opacity="1"><g transform="translate(472.282078, 182.467707)"><g><path d="M 30.140625 -76.671875 L 0.484375 -76.671875 L 0.484375 -84.390625 L 68.71875 -84.390625 L 68.71875 -76.671875 L 39.0625 -76.671875 L 39.0625 0 L 30.140625 0 Z M 30.140625 -76.671875 "/></g></g></g><g fill="#3182ce" fill-opacity="1"><g transform="translate(540.276534, 182.467707)"><g><path d="M 50.640625 0.71875 C 42.273438 0.71875 34.695312 -1.144531 27.90625 -4.875 C 21.113281 -8.613281 15.804688 -13.738281 11.984375 -20.25 C 8.171875 -26.757812 6.265625 -34.078125 6.265625 -42.203125 C 6.265625 -50.316406 8.171875 -57.628906 11.984375 -64.140625 C 15.804688 -70.648438 21.113281 -75.769531 27.90625 -79.5 C 34.695312 -83.238281 42.273438 -85.109375 50.640625 -85.109375 C 58.992188 -85.109375 66.523438 -83.257812 73.234375 -79.5625 C 79.953125 -75.875 85.238281 -70.753906 89.09375 -64.203125 C 92.945312 -57.648438 94.875 -50.316406 94.875 -42.203125 C 94.875 -34.078125 92.945312 -26.738281 89.09375 -20.1875 C 85.238281 -13.644531 79.953125 -8.523438 73.234375 -4.828125 C 66.523438 -1.128906 58.992188 0.71875 50.640625 0.71875 Z M 50.640625 -7.234375 C 57.304688 -7.234375 63.332031 -8.738281 68.71875 -11.75 C 74.101562 -14.769531 78.320312 -18.953125 81.375 -24.296875 C 84.4375 -29.640625 85.96875 -35.609375 85.96875 -42.203125 C 85.96875 -48.785156 84.4375 -54.75 81.375 -60.09375 C 78.320312 -65.445312 74.101562 -69.628906 68.71875 -72.640625 C 63.332031 -75.648438 57.304688 -77.15625 50.640625 -77.15625 C 43.960938 -77.15625 37.910156 -75.648438 32.484375 -72.640625 C 27.066406 -69.628906 22.8125 -65.445312 19.71875 -60.09375 C 16.625 -54.75 15.078125 -48.785156 15.078125 -42.203125 C 15.078125 -35.609375 16.625 -29.640625 19.71875 -24.296875 C 22.8125 -18.953125 27.066406 -14.769531 32.484375 -11.75 C 37.910156 -8.738281 43.960938 -7.234375 50.640625 -7.234375 Z M 50.640625 -7.234375 "/></g></g></g></svg>