<svg xmlns="http://www.w3.org/2000/svg" xmlns:xlink="http://www.w3.org/1999/xlink" width="900" zoomAndPan="magnify" viewBox="0 0 675.12 809.99995" height="1500" preserveAspectRatio="xMidYMid meet" version="1.0"><defs><g/><clipPath id="188c27523d"><path d="M 0 0.527344 L 674.121094 0.527344 L 674.121094 809.472656 L 0 809.472656 Z M 0 0.527344 " clip-rule="nonzero"/></clipPath><clipPath id="7c74b441ba"><path d="M 139 298 L 592 298 L 592 809.472656 L 139 809.472656 Z M 139 298 " clip-rule="nonzero"/></clipPath><clipPath id="c5f87c8eb8"><rect x="0" width="453" y="0" height="512"/></clipPath></defs><g clip-path="url(#188c27523d)"><path fill="#ffffff" d="M 0 0.527344 L 674.121094 0.527344 L 674.121094 1124.0625 L 0 1124.0625 Z M 0 0.527344 " fill-opacity="1" fill-rule="nonzero"/><path fill="#f4f6f8" d="M 0 0.527344 L 674.121094 0.527344 L 674.121094 1124.0625 L 0 1124.0625 Z M 0 0.527344 " fill-opacity="1" fill-rule="nonzero"/></g><g clip-path="url(#7c74b441ba)"><g transform="matrix(1, 0, 0, 1, 139, 298)"><g clip-path="url(#c5f87c8eb8)"><g fill="#000000" fill-opacity="1"><g transform="translate(0.274874, 453.146041)"><g><path d="M 350.515625 -266.285156 C 343.058594 -264.96875 334.285156 -264.09375 322.4375 -264.09375 L 218.03125 -264.09375 C 218.90625 -278.570312 219.785156 -293.484375 220.222656 -309.277344 C 220.664062 -319.808594 221.539062 -335.160156 222.855469 -345.25 L 181.617188 -345.25 C 183.375 -334.722656 184.6875 -318.492188 184.6875 -308.839844 C 184.6875 -293.046875 183.8125 -278.132812 182.933594 -264.09375 L 105.726562 -264.09375 C 89.054688 -264.09375 71.066406 -264.96875 55.714844 -266.726562 L 55.714844 -229.4375 C 71.066406 -231.191406 88.617188 -231.191406 106.164062 -231.191406 L 179.863281 -231.191406 C 168.019531 -140.820312 136.433594 -85.984375 93.003906 -46.5 C 79.84375 -33.78125 61.855469 -21.496094 48.257812 -14.039062 L 79.84375 11.84375 C 153.105469 -38.605469 198.726562 -105.285156 214.519531 -231.191406 L 337.355469 -231.191406 C 337.355469 -184.25 331.652344 -76.332031 314.980469 -42.992188 C 310.15625 -32.023438 302.257812 -28.515625 289.535156 -28.515625 C 271.113281 -28.515625 247.859375 -30.269531 224.171875 -33.339844 L 228.558594 3.070312 C 251.371094 4.386719 276.816406 5.703125 299.1875 5.703125 C 323.316406 5.703125 337.355469 -2.195312 346.128906 -20.617188 C 365.871094 -62.734375 371.132812 -190.390625 372.886719 -232.507812 C 372.886719 -238.210938 373.765625 -246.546875 375.082031 -254.003906 Z M 350.515625 -266.285156 "/></g></g></g></g></g></g><g fill="#3182ce" fill-opacity="1"><g transform="translate(472.399117, 182.467707)"><g><path d="M 39.90625 -39.671875 L 22.671875 -22.1875 L 22.671875 0 L 13.75 0 L 13.75 -84.390625 L 22.671875 -84.390625 L 22.671875 -33.390625 L 72.21875 -84.390625 L 82.46875 -84.390625 L 45.9375 -46.171875 L 85 0 L 74.390625 0 Z M 39.90625 -39.671875 "/></g></g></g><g fill="#3182ce" fill-opacity="1"><g transform="translate(554.860407, 182.467707)"><g><path d="M 66.671875 -22.546875 L 19.65625 -22.546875 L 9.53125 0 L 0.234375 0 L 38.828125 -84.390625 L 47.625 -84.390625 L 86.203125 0 L 76.796875 0 Z M 63.421875 -29.78125 L 43.15625 -75.109375 L 22.90625 -29.78125 Z M 63.421875 -29.78125 "/></g></g></g></svg>