<svg xmlns="http://www.w3.org/2000/svg" xmlns:xlink="http://www.w3.org/1999/xlink" width="900" zoomAndPan="magnify" viewBox="0 0 675.12 809.99995" height="1500" preserveAspectRatio="xMidYMid meet" version="1.0"><defs><g/><clipPath id="349c5bf1be"><path d="M 0 0.527344 L 674.121094 0.527344 L 674.121094 809.472656 L 0 809.472656 Z M 0 0.527344 " clip-rule="nonzero"/></clipPath><clipPath id="b27354a882"><path d="M 139 298 L 592 298 L 592 809.472656 L 139 809.472656 Z M 139 298 " clip-rule="nonzero"/></clipPath><clipPath id="5760af3139"><rect x="0" width="453" y="0" height="512"/></clipPath></defs><g clip-path="url(#349c5bf1be)"><path fill="#ffffff" d="M 0 0.527344 L 674.121094 0.527344 L 674.121094 1124.0625 L 0 1124.0625 Z M 0 0.527344 " fill-opacity="1" fill-rule="nonzero"/><path fill="#f4f6f8" d="M 0 0.527344 L 674.121094 0.527344 L 674.121094 1124.0625 L 0 1124.0625 Z M 0 0.527344 " fill-opacity="1" fill-rule="nonzero"/></g><g clip-path="url(#b27354a882)"><g transform="matrix(1, 0, 0, 1, 139, 298)"><g clip-path="url(#5760af3139)"><g fill="#000000" fill-opacity="1"><g transform="translate(0.274874, 453.146041)"><g><path d="M 74.140625 -335.160156 C 74.140625 -325.949219 72.824219 -314.105469 71.507812 -304.015625 C 65.804688 -268.480469 51.765625 -187.320312 51.765625 -123.710938 C 51.765625 -64.925781 59.222656 -17.109375 67.996094 14.039062 L 99.582031 11.40625 L 98.265625 -3.507812 C 98.265625 -8.773438 99.144531 -17.109375 100.460938 -22.8125 C 104.847656 -44.308594 120.640625 -88.617188 131.167969 -118.886719 L 112.742188 -133.363281 C 105.726562 -115.816406 95.195312 -89.054688 88.175781 -69.3125 C 85.546875 -90.808594 84.230469 -108.355469 84.230469 -129.414062 C 84.230469 -178.109375 96.949219 -262.339844 105.285156 -302.699219 C 107.039062 -310.59375 110.550781 -324.195312 113.183594 -331.652344 Z M 290.414062 -62.292969 C 290.414062 -39.042969 281.640625 -21.933594 247.859375 -21.933594 C 217.589844 -21.933594 198.726562 -32.464844 198.726562 -54.398438 C 198.726562 -72.824219 218.90625 -85.546875 249.617188 -85.546875 C 263.214844 -85.546875 276.375 -83.789062 289.976562 -79.84375 C 290.414062 -72.824219 290.414062 -66.679688 290.414062 -62.292969 Z M 397.894531 -219.347656 C 373.765625 -216.714844 346.566406 -214.082031 317.175781 -212.328125 L 317.175781 -283.832031 C 343.933594 -285.148438 368.0625 -286.90625 387.804688 -289.097656 L 387.804688 -320.246094 C 336.914062 -312.789062 257.074219 -308.402344 187.320312 -313.664062 L 187.320312 -282.519531 C 218.90625 -281.203125 253.125 -281.203125 285.148438 -282.519531 L 285.148438 -211.011719 C 251.371094 -210.132812 215.835938 -210.574219 180.742188 -213.203125 L 180.742188 -181.179688 C 215.398438 -179.425781 251.371094 -178.988281 285.589844 -179.863281 C 286.027344 -157.050781 287.34375 -131.609375 288.660156 -109.671875 C 276.375 -111.429688 264.09375 -112.742188 250.492188 -112.742188 C 193.464844 -112.742188 167.582031 -82.914062 167.582031 -52.644531 C 167.582031 -11.84375 203.113281 8.773438 250.933594 8.773438 C 297.871094 8.773438 322.878906 -12.722656 322.878906 -47.816406 C 322.878906 -53.519531 322.878906 -60.101562 322.4375 -67.558594 C 348.320312 -55.273438 372.886719 -36.851562 394.382812 -14.476562 L 412.808594 -45.183594 C 391.3125 -64.488281 361.042969 -87.738281 320.683594 -101.339844 C 319.367188 -126.34375 318.050781 -154.417969 317.613281 -181.179688 C 347.445312 -182.496094 375.082031 -184.6875 397.894531 -187.320312 Z M 397.894531 -219.347656 "/></g></g></g></g></g></g><g fill="#3182ce" fill-opacity="1"><g transform="translate(457.272339, 182.467707)"><g><path d="M 84.265625 -84.390625 L 84.265625 0 L 75.46875 0 L 75.46875 -38.9375 L 22.671875 -38.9375 L 22.671875 0 L 13.75 0 L 13.75 -84.390625 L 22.671875 -84.390625 L 22.671875 -46.78125 L 75.46875 -46.78125 L 75.46875 -84.390625 Z M 84.265625 -84.390625 "/></g></g></g><g fill="#3182ce" fill-opacity="1"><g transform="translate(555.285698, 182.467707)"><g><path d="M 50.640625 0.71875 C 42.273438 0.71875 34.695312 -1.144531 27.90625 -4.875 C 21.113281 -8.613281 15.804688 -13.738281 11.984375 -20.25 C 8.171875 -26.757812 6.265625 -34.078125 6.265625 -42.203125 C 6.265625 -50.316406 8.171875 -57.628906 11.984375 -64.140625 C 15.804688 -70.648438 21.113281 -75.769531 27.90625 -79.5 C 34.695312 -83.238281 42.273438 -85.109375 50.640625 -85.109375 C 58.992188 -85.109375 66.523438 -83.257812 73.234375 -79.5625 C 79.953125 -75.875 85.238281 -70.753906 89.09375 -64.203125 C 92.945312 -57.648438 94.875 -50.316406 94.875 -42.203125 C 94.875 -34.078125 92.945312 -26.738281 89.09375 -20.1875 C 85.238281 -13.644531 79.953125 -8.523438 73.234375 -4.828125 C 66.523438 -1.128906 58.992188 0.71875 50.640625 0.71875 Z M 50.640625 -7.234375 C 57.304688 -7.234375 63.332031 -8.738281 68.71875 -11.75 C 74.101562 -14.769531 78.320312 -18.953125 81.375 -24.296875 C 84.4375 -29.640625 85.96875 -35.609375 85.96875 -42.203125 C 85.96875 -48.785156 84.4375 -54.75 81.375 -60.09375 C 78.320312 -65.445312 74.101562 -69.628906 68.71875 -72.640625 C 63.332031 -75.648438 57.304688 -77.15625 50.640625 -77.15625 C 43.960938 -77.15625 37.910156 -75.648438 32.484375 -72.640625 C 27.066406 -69.628906 22.8125 -65.445312 19.71875 -60.09375 C 16.625 -54.75 15.078125 -48.785156 15.078125 -42.203125 C 15.078125 -35.609375 16.625 -29.640625 19.71875 -24.296875 C 22.8125 -18.953125 27.066406 -14.769531 32.484375 -11.75 C 37.910156 -8.738281 43.960938 -7.234375 50.640625 -7.234375 Z M 50.640625 -7.234375 "/></g></g></g></svg>